<mxfile host="app.diagrams.net" modified="2022-09-09T03:03:43.941Z" agent="5.0 (Windows NT 10.0; Win64; x64) AppleWebKit/537.36 (KHTML, like Gecko) Chrome/105.0.0.0 Safari/537.36" etag="qIqBg8HzPJB2f4IvTo3f" version="20.3.0" type="github">
  <diagram id="rs3qDzsFMAPh0nYCIl83" name="第 1 页">
    <mxGraphModel dx="1038" dy="539" grid="1" gridSize="10" guides="1" tooltips="1" connect="1" arrows="1" fold="1" page="1" pageScale="1" pageWidth="827" pageHeight="1169" math="0" shadow="0">
      <root>
        <mxCell id="0" />
        <mxCell id="1" parent="0" />
        <mxCell id="VfdWvWq5BOCNGvIPTbdh-3" value="" style="edgeStyle=orthogonalEdgeStyle;rounded=0;orthogonalLoop=1;jettySize=auto;html=1;" edge="1" parent="1" source="VfdWvWq5BOCNGvIPTbdh-1" target="VfdWvWq5BOCNGvIPTbdh-2">
          <mxGeometry relative="1" as="geometry" />
        </mxCell>
        <mxCell id="VfdWvWq5BOCNGvIPTbdh-1" value="start" style="rounded=1;whiteSpace=wrap;html=1;" vertex="1" parent="1">
          <mxGeometry x="90" y="40" width="120" height="30" as="geometry" />
        </mxCell>
        <mxCell id="VfdWvWq5BOCNGvIPTbdh-6" value="" style="edgeStyle=orthogonalEdgeStyle;rounded=0;orthogonalLoop=1;jettySize=auto;html=1;" edge="1" parent="1" source="VfdWvWq5BOCNGvIPTbdh-2" target="VfdWvWq5BOCNGvIPTbdh-5">
          <mxGeometry relative="1" as="geometry" />
        </mxCell>
        <mxCell id="VfdWvWq5BOCNGvIPTbdh-2" value="业务提报" style="rounded=1;whiteSpace=wrap;html=1;" vertex="1" parent="1">
          <mxGeometry x="90" y="110" width="120" height="60" as="geometry" />
        </mxCell>
        <mxCell id="VfdWvWq5BOCNGvIPTbdh-8" value="" style="edgeStyle=orthogonalEdgeStyle;rounded=0;orthogonalLoop=1;jettySize=auto;html=1;" edge="1" parent="1" source="VfdWvWq5BOCNGvIPTbdh-5" target="VfdWvWq5BOCNGvIPTbdh-7">
          <mxGeometry relative="1" as="geometry" />
        </mxCell>
        <mxCell id="VfdWvWq5BOCNGvIPTbdh-5" value="生成一条代办" style="rounded=1;whiteSpace=wrap;html=1;" vertex="1" parent="1">
          <mxGeometry x="90" y="200" width="120" height="60" as="geometry" />
        </mxCell>
        <mxCell id="VfdWvWq5BOCNGvIPTbdh-10" value="" style="edgeStyle=orthogonalEdgeStyle;rounded=0;orthogonalLoop=1;jettySize=auto;html=1;" edge="1" parent="1" source="VfdWvWq5BOCNGvIPTbdh-7" target="VfdWvWq5BOCNGvIPTbdh-9">
          <mxGeometry relative="1" as="geometry" />
        </mxCell>
        <mxCell id="VfdWvWq5BOCNGvIPTbdh-7" value="人工审核" style="rounded=1;whiteSpace=wrap;html=1;" vertex="1" parent="1">
          <mxGeometry x="90" y="290" width="120" height="60" as="geometry" />
        </mxCell>
        <mxCell id="VfdWvWq5BOCNGvIPTbdh-17" value="是" style="edgeStyle=orthogonalEdgeStyle;rounded=0;orthogonalLoop=1;jettySize=auto;html=1;entryX=0.5;entryY=0;entryDx=0;entryDy=0;" edge="1" parent="1" source="VfdWvWq5BOCNGvIPTbdh-9" target="VfdWvWq5BOCNGvIPTbdh-18">
          <mxGeometry relative="1" as="geometry" />
        </mxCell>
        <mxCell id="VfdWvWq5BOCNGvIPTbdh-25" value="" style="edgeStyle=orthogonalEdgeStyle;rounded=0;orthogonalLoop=1;jettySize=auto;html=1;" edge="1" parent="1" source="VfdWvWq5BOCNGvIPTbdh-9" target="VfdWvWq5BOCNGvIPTbdh-24">
          <mxGeometry relative="1" as="geometry" />
        </mxCell>
        <mxCell id="VfdWvWq5BOCNGvIPTbdh-9" value="是否确实存在问题？" style="rhombus;whiteSpace=wrap;html=1;rounded=1;" vertex="1" parent="1">
          <mxGeometry x="260" y="280" width="140" height="80" as="geometry" />
        </mxCell>
        <mxCell id="VfdWvWq5BOCNGvIPTbdh-19" value="否" style="edgeStyle=orthogonalEdgeStyle;rounded=0;orthogonalLoop=1;jettySize=auto;html=1;" edge="1" parent="1" source="VfdWvWq5BOCNGvIPTbdh-16" target="VfdWvWq5BOCNGvIPTbdh-37">
          <mxGeometry relative="1" as="geometry">
            <mxPoint x="320" y="650" as="targetPoint" />
          </mxGeometry>
        </mxCell>
        <mxCell id="VfdWvWq5BOCNGvIPTbdh-31" value="是" style="edgeStyle=orthogonalEdgeStyle;rounded=0;orthogonalLoop=1;jettySize=auto;html=1;strokeColor=default;strokeWidth=1;startArrow=none;startFill=0;endArrow=classic;endFill=1;targetPerimeterSpacing=0;" edge="1" parent="1" source="VfdWvWq5BOCNGvIPTbdh-16" target="VfdWvWq5BOCNGvIPTbdh-30">
          <mxGeometry relative="1" as="geometry" />
        </mxCell>
        <mxCell id="VfdWvWq5BOCNGvIPTbdh-16" value="问题是否已记录？" style="rhombus;whiteSpace=wrap;html=1;rounded=1;" vertex="1" parent="1">
          <mxGeometry x="260" y="495" width="140" height="80" as="geometry" />
        </mxCell>
        <mxCell id="VfdWvWq5BOCNGvIPTbdh-18" value="数据库搜索对应的房源编号、房屋编号" style="whiteSpace=wrap;html=1;rounded=1;" vertex="1" parent="1">
          <mxGeometry x="270" y="410" width="120" height="60" as="geometry" />
        </mxCell>
        <mxCell id="VfdWvWq5BOCNGvIPTbdh-24" value="修改表单内容为无问题" style="whiteSpace=wrap;html=1;rounded=1;" vertex="1" parent="1">
          <mxGeometry x="440" y="290" width="120" height="60" as="geometry" />
        </mxCell>
        <mxCell id="VfdWvWq5BOCNGvIPTbdh-26" value="" style="edgeStyle=orthogonalEdgeStyle;rounded=0;orthogonalLoop=1;jettySize=auto;html=1;endArrow=classic;strokeWidth=1;strokeColor=default;targetPerimeterSpacing=0;endFill=1;exitX=1;exitY=0.5;exitDx=0;exitDy=0;" edge="1" parent="1" source="VfdWvWq5BOCNGvIPTbdh-24">
          <mxGeometry relative="1" as="geometry">
            <mxPoint x="150" y="90" as="targetPoint" />
            <mxPoint x="560" y="360" as="sourcePoint" />
            <Array as="points">
              <mxPoint x="590" y="320" />
              <mxPoint x="590" y="90" />
            </Array>
          </mxGeometry>
        </mxCell>
        <mxCell id="VfdWvWq5BOCNGvIPTbdh-27" value="驳回" style="edgeLabel;html=1;align=center;verticalAlign=middle;resizable=0;points=[];" vertex="1" connectable="0" parent="VfdWvWq5BOCNGvIPTbdh-26">
          <mxGeometry x="-0.7251" y="1" relative="1" as="geometry">
            <mxPoint y="-58" as="offset" />
          </mxGeometry>
        </mxCell>
        <mxCell id="VfdWvWq5BOCNGvIPTbdh-33" value="" style="edgeStyle=orthogonalEdgeStyle;rounded=0;orthogonalLoop=1;jettySize=auto;html=1;strokeColor=default;strokeWidth=1;startArrow=none;startFill=0;endArrow=classic;endFill=1;targetPerimeterSpacing=0;" edge="1" parent="1" source="VfdWvWq5BOCNGvIPTbdh-30">
          <mxGeometry relative="1" as="geometry">
            <mxPoint x="590" y="320" as="targetPoint" />
          </mxGeometry>
        </mxCell>
        <mxCell id="VfdWvWq5BOCNGvIPTbdh-30" value="修改表单内容为已记录" style="whiteSpace=wrap;html=1;rounded=1;" vertex="1" parent="1">
          <mxGeometry x="440" y="505" width="120" height="60" as="geometry" />
        </mxCell>
        <mxCell id="VfdWvWq5BOCNGvIPTbdh-36" value="" style="endArrow=classic;html=1;rounded=0;strokeColor=default;strokeWidth=1;targetPerimeterSpacing=0;exitX=0.5;exitY=1;exitDx=0;exitDy=0;entryX=0.5;entryY=0;entryDx=0;entryDy=0;" edge="1" parent="1" source="VfdWvWq5BOCNGvIPTbdh-18" target="VfdWvWq5BOCNGvIPTbdh-16">
          <mxGeometry width="50" height="50" relative="1" as="geometry">
            <mxPoint x="390" y="460" as="sourcePoint" />
            <mxPoint x="440" y="410" as="targetPoint" />
          </mxGeometry>
        </mxCell>
        <mxCell id="VfdWvWq5BOCNGvIPTbdh-39" value="" style="edgeStyle=orthogonalEdgeStyle;rounded=0;orthogonalLoop=1;jettySize=auto;html=1;strokeColor=default;strokeWidth=1;startArrow=none;startFill=0;endArrow=classic;endFill=1;targetPerimeterSpacing=0;" edge="1" parent="1" source="VfdWvWq5BOCNGvIPTbdh-37" target="VfdWvWq5BOCNGvIPTbdh-38">
          <mxGeometry relative="1" as="geometry" />
        </mxCell>
        <mxCell id="VfdWvWq5BOCNGvIPTbdh-37" value="记录问题原因" style="rounded=1;whiteSpace=wrap;html=1;" vertex="1" parent="1">
          <mxGeometry x="270" y="600" width="120" height="60" as="geometry" />
        </mxCell>
        <mxCell id="VfdWvWq5BOCNGvIPTbdh-41" value="" style="edgeStyle=orthogonalEdgeStyle;rounded=0;orthogonalLoop=1;jettySize=auto;html=1;strokeColor=default;strokeWidth=1;startArrow=none;startFill=0;endArrow=classic;endFill=1;targetPerimeterSpacing=0;" edge="1" parent="1" source="VfdWvWq5BOCNGvIPTbdh-38" target="VfdWvWq5BOCNGvIPTbdh-40">
          <mxGeometry relative="1" as="geometry" />
        </mxCell>
        <mxCell id="VfdWvWq5BOCNGvIPTbdh-38" value="问题对应表查看问题分级" style="whiteSpace=wrap;html=1;rounded=1;" vertex="1" parent="1">
          <mxGeometry x="270" y="680" width="120" height="60" as="geometry" />
        </mxCell>
        <mxCell id="VfdWvWq5BOCNGvIPTbdh-43" value="" style="edgeStyle=orthogonalEdgeStyle;rounded=0;orthogonalLoop=1;jettySize=auto;html=1;strokeColor=default;strokeWidth=1;startArrow=none;startFill=0;endArrow=classic;endFill=1;targetPerimeterSpacing=0;" edge="1" parent="1" source="VfdWvWq5BOCNGvIPTbdh-40" target="VfdWvWq5BOCNGvIPTbdh-42">
          <mxGeometry relative="1" as="geometry" />
        </mxCell>
        <mxCell id="VfdWvWq5BOCNGvIPTbdh-40" value="数据库记录分级" style="whiteSpace=wrap;html=1;rounded=1;" vertex="1" parent="1">
          <mxGeometry x="270" y="770" width="120" height="60" as="geometry" />
        </mxCell>
        <mxCell id="VfdWvWq5BOCNGvIPTbdh-45" value="" style="edgeStyle=orthogonalEdgeStyle;rounded=0;orthogonalLoop=1;jettySize=auto;html=1;strokeColor=default;strokeWidth=1;startArrow=none;startFill=0;endArrow=classic;endFill=1;targetPerimeterSpacing=0;" edge="1" parent="1" source="VfdWvWq5BOCNGvIPTbdh-42" target="VfdWvWq5BOCNGvIPTbdh-44">
          <mxGeometry relative="1" as="geometry" />
        </mxCell>
        <mxCell id="VfdWvWq5BOCNGvIPTbdh-42" value="查找该房屋累计级别对应调价区间" style="whiteSpace=wrap;html=1;rounded=1;" vertex="1" parent="1">
          <mxGeometry x="270" y="860" width="120" height="60" as="geometry" />
        </mxCell>
        <mxCell id="VfdWvWq5BOCNGvIPTbdh-47" value="" style="edgeStyle=orthogonalEdgeStyle;rounded=0;orthogonalLoop=1;jettySize=auto;html=1;strokeColor=default;strokeWidth=1;startArrow=none;startFill=0;endArrow=classic;endFill=1;targetPerimeterSpacing=0;" edge="1" parent="1" source="VfdWvWq5BOCNGvIPTbdh-44" target="VfdWvWq5BOCNGvIPTbdh-46">
          <mxGeometry relative="1" as="geometry" />
        </mxCell>
        <mxCell id="VfdWvWq5BOCNGvIPTbdh-44" value="数据库记录调价区间" style="whiteSpace=wrap;html=1;rounded=1;" vertex="1" parent="1">
          <mxGeometry x="270" y="940" width="120" height="60" as="geometry" />
        </mxCell>
        <mxCell id="VfdWvWq5BOCNGvIPTbdh-49" value="" style="edgeStyle=orthogonalEdgeStyle;rounded=0;orthogonalLoop=1;jettySize=auto;html=1;strokeColor=default;strokeWidth=1;startArrow=none;startFill=0;endArrow=classic;endFill=1;targetPerimeterSpacing=0;" edge="1" parent="1" source="VfdWvWq5BOCNGvIPTbdh-46" target="VfdWvWq5BOCNGvIPTbdh-48">
          <mxGeometry relative="1" as="geometry" />
        </mxCell>
        <mxCell id="VfdWvWq5BOCNGvIPTbdh-46" value="调价表记录该房屋如何调价" style="whiteSpace=wrap;html=1;rounded=1;" vertex="1" parent="1">
          <mxGeometry x="270" y="1020" width="120" height="60" as="geometry" />
        </mxCell>
        <mxCell id="VfdWvWq5BOCNGvIPTbdh-48" value="end" style="whiteSpace=wrap;html=1;rounded=1;" vertex="1" parent="1">
          <mxGeometry x="270" y="1110" width="120" height="31" as="geometry" />
        </mxCell>
      </root>
    </mxGraphModel>
  </diagram>
</mxfile>
